<svg width="373" height="373" viewBox="0 0 373 373" fill="none" xmlns="http://www.w3.org/2000/svg">
<path d="M26.5408 132.204L34.258 98.3928L44.0073 100.618L47.8659 83.7123C48.8139 79.5586 51.6018 76.0627 55.4405 74.2141L71.0636 66.6904L66.7248 57.6807L97.9711 42.6333L102.31 51.643L133.556 36.5956L129.217 27.5859L160.464 12.5384L164.803 21.5481L180.426 14.0244C184.264 12.1758 188.736 12.1758 192.574 14.0244L208.198 21.5481L212.536 12.5384L243.783 27.5859L239.444 36.5956L270.69 51.643L275.029 42.6333L306.275 57.6807L301.936 66.6904L317.56 74.2141C321.398 76.0627 324.186 79.5586 325.134 83.7124L328.993 100.618L338.742 98.3928L346.459 132.204L336.71 134.429L344.427 168.24L354.176 166.015L361.894 199.827L352.144 202.052L356.003 218.957C356.951 223.111 355.956 227.47 353.3 230.801L342.488 244.359L350.306 250.594L328.683 277.708L320.865 271.473L299.242 298.588L307.06 304.823L285.437 331.937L277.619 325.702L266.807 339.26C264.151 342.591 260.122 344.531 255.862 344.531H238.521V354.531H203.84V344.531H169.16V354.531H134.479V344.531H117.138C112.878 344.531 108.849 342.591 106.193 339.26L95.3813 325.702L87.563 331.937L65.9399 304.823L73.7582 298.588L52.1351 271.473L44.3168 277.708L22.6936 250.594L30.512 244.359L19.7004 230.801C17.044 227.47 16.049 223.111 16.9971 218.957L20.8557 202.052L11.1064 199.827L18.8236 166.015L28.5729 168.24L36.2901 134.429L26.5408 132.204Z" stroke="#D9D9D9" stroke-width="20" stroke-dasharray="32 32"/>
<path d="M238.296 252.25H158.608C146.438 252.247 134.509 248.86 124.153 242.467C113.797 236.074 105.423 226.928 99.9664 216.05C94.5096 205.171 92.1853 192.99 93.2531 180.867C94.3209 168.744 98.7388 157.157 106.013 147.4C113.287 137.643 123.131 130.101 134.445 125.617C145.759 121.133 158.097 119.883 170.08 122.007C182.063 124.132 193.22 129.546 202.303 137.646C211.386 145.746 218.037 156.212 221.514 167.875H238.296C249.485 167.875 260.215 172.32 268.127 180.231C276.038 188.143 280.483 198.874 280.483 210.063C280.483 221.251 276.038 231.982 268.127 239.894C260.215 247.805 249.485 252.25 238.296 252.25Z" stroke="#D9D9D9" stroke-width="14" stroke-linecap="round" stroke-linejoin="round"/>
</svg>
